<mxfile host="app.diagrams.net" modified="2023-05-01T06:15:48.383Z" agent="Mozilla/5.0 (Windows NT 10.0; Win64; x64) AppleWebKit/537.36 (KHTML, like Gecko) Chrome/112.0.0.0 Safari/537.36" etag="1So0gSKhixwZhLgWpSDG" version="21.2.3" type="google">
  <diagram name="ページ1" id="gMyU_O-zDSy49_SU-aCd">
    <mxGraphModel grid="1" page="1" gridSize="10" guides="1" tooltips="1" connect="1" arrows="1" fold="1" pageScale="1" pageWidth="827" pageHeight="1169" math="0" shadow="0">
      <root>
        <mxCell id="0" />
        <mxCell id="1" parent="0" />
        <mxCell id="vDJg07O1ZjI907rp0tV1-6" style="edgeStyle=orthogonalEdgeStyle;rounded=0;orthogonalLoop=1;jettySize=auto;html=1;entryX=0;entryY=0.5;entryDx=0;entryDy=0;" edge="1" parent="1" source="vDJg07O1ZjI907rp0tV1-2" target="vDJg07O1ZjI907rp0tV1-3">
          <mxGeometry relative="1" as="geometry" />
        </mxCell>
        <mxCell id="vDJg07O1ZjI907rp0tV1-2" value="ログイン画面" style="rounded=0;whiteSpace=wrap;html=1;" vertex="1" parent="1">
          <mxGeometry x="210" y="100" width="90" height="50" as="geometry" />
        </mxCell>
        <mxCell id="vDJg07O1ZjI907rp0tV1-8" style="edgeStyle=orthogonalEdgeStyle;rounded=0;orthogonalLoop=1;jettySize=auto;html=1;" edge="1" parent="1" source="vDJg07O1ZjI907rp0tV1-3" target="vDJg07O1ZjI907rp0tV1-7">
          <mxGeometry relative="1" as="geometry" />
        </mxCell>
        <mxCell id="vDJg07O1ZjI907rp0tV1-10" style="edgeStyle=orthogonalEdgeStyle;rounded=0;orthogonalLoop=1;jettySize=auto;html=1;entryX=0;entryY=0.5;entryDx=0;entryDy=0;" edge="1" parent="1" source="vDJg07O1ZjI907rp0tV1-3" target="vDJg07O1ZjI907rp0tV1-9">
          <mxGeometry relative="1" as="geometry" />
        </mxCell>
        <mxCell id="vDJg07O1ZjI907rp0tV1-14" style="edgeStyle=orthogonalEdgeStyle;rounded=0;orthogonalLoop=1;jettySize=auto;html=1;entryX=0;entryY=0.5;entryDx=0;entryDy=0;" edge="1" parent="1" source="vDJg07O1ZjI907rp0tV1-3" target="vDJg07O1ZjI907rp0tV1-11">
          <mxGeometry relative="1" as="geometry" />
        </mxCell>
        <mxCell id="vDJg07O1ZjI907rp0tV1-15" style="edgeStyle=orthogonalEdgeStyle;rounded=0;orthogonalLoop=1;jettySize=auto;html=1;entryX=0;entryY=0.5;entryDx=0;entryDy=0;" edge="1" parent="1" source="vDJg07O1ZjI907rp0tV1-3" target="vDJg07O1ZjI907rp0tV1-12">
          <mxGeometry relative="1" as="geometry" />
        </mxCell>
        <mxCell id="vDJg07O1ZjI907rp0tV1-3" value="管理者画面" style="rounded=0;whiteSpace=wrap;html=1;" vertex="1" parent="1">
          <mxGeometry x="380" y="100" width="90" height="50" as="geometry" />
        </mxCell>
        <mxCell id="vDJg07O1ZjI907rp0tV1-5" style="edgeStyle=orthogonalEdgeStyle;rounded=0;orthogonalLoop=1;jettySize=auto;html=1;entryX=0;entryY=0.5;entryDx=0;entryDy=0;" edge="1" parent="1" source="vDJg07O1ZjI907rp0tV1-4" target="vDJg07O1ZjI907rp0tV1-2">
          <mxGeometry relative="1" as="geometry" />
        </mxCell>
        <mxCell id="vDJg07O1ZjI907rp0tV1-4" value="管理者" style="shape=umlActor;verticalLabelPosition=bottom;verticalAlign=top;html=1;outlineConnect=0;" vertex="1" parent="1">
          <mxGeometry x="100" y="95" width="30" height="60" as="geometry" />
        </mxCell>
        <mxCell id="vDJg07O1ZjI907rp0tV1-17" style="edgeStyle=orthogonalEdgeStyle;rounded=0;orthogonalLoop=1;jettySize=auto;html=1;entryX=0;entryY=0.5;entryDx=0;entryDy=0;" edge="1" parent="1" source="vDJg07O1ZjI907rp0tV1-7" target="vDJg07O1ZjI907rp0tV1-16">
          <mxGeometry relative="1" as="geometry" />
        </mxCell>
        <mxCell id="vDJg07O1ZjI907rp0tV1-19" style="edgeStyle=orthogonalEdgeStyle;rounded=0;orthogonalLoop=1;jettySize=auto;html=1;entryX=0;entryY=0.5;entryDx=0;entryDy=0;" edge="1" parent="1" source="vDJg07O1ZjI907rp0tV1-7" target="vDJg07O1ZjI907rp0tV1-18">
          <mxGeometry relative="1" as="geometry" />
        </mxCell>
        <mxCell id="vDJg07O1ZjI907rp0tV1-7" value="教員一覧画面" style="rounded=0;whiteSpace=wrap;html=1;" vertex="1" parent="1">
          <mxGeometry x="570" y="100" width="90" height="50" as="geometry" />
        </mxCell>
        <mxCell id="vDJg07O1ZjI907rp0tV1-21" style="edgeStyle=orthogonalEdgeStyle;rounded=0;orthogonalLoop=1;jettySize=auto;html=1;entryX=0;entryY=0.5;entryDx=0;entryDy=0;" edge="1" parent="1" source="vDJg07O1ZjI907rp0tV1-9" target="vDJg07O1ZjI907rp0tV1-20">
          <mxGeometry relative="1" as="geometry" />
        </mxCell>
        <mxCell id="vDJg07O1ZjI907rp0tV1-23" style="edgeStyle=orthogonalEdgeStyle;rounded=0;orthogonalLoop=1;jettySize=auto;html=1;entryX=0;entryY=0.5;entryDx=0;entryDy=0;" edge="1" parent="1" source="vDJg07O1ZjI907rp0tV1-9" target="vDJg07O1ZjI907rp0tV1-22">
          <mxGeometry relative="1" as="geometry" />
        </mxCell>
        <mxCell id="vDJg07O1ZjI907rp0tV1-9" value="クラス一覧画面" style="rounded=0;whiteSpace=wrap;html=1;" vertex="1" parent="1">
          <mxGeometry x="570" y="270" width="90" height="50" as="geometry" />
        </mxCell>
        <mxCell id="vDJg07O1ZjI907rp0tV1-26" style="edgeStyle=orthogonalEdgeStyle;rounded=0;orthogonalLoop=1;jettySize=auto;html=1;entryX=0;entryY=0.5;entryDx=0;entryDy=0;" edge="1" parent="1" source="vDJg07O1ZjI907rp0tV1-11" target="vDJg07O1ZjI907rp0tV1-24">
          <mxGeometry relative="1" as="geometry" />
        </mxCell>
        <mxCell id="vDJg07O1ZjI907rp0tV1-27" style="edgeStyle=orthogonalEdgeStyle;rounded=0;orthogonalLoop=1;jettySize=auto;html=1;entryX=0;entryY=0.5;entryDx=0;entryDy=0;" edge="1" parent="1" source="vDJg07O1ZjI907rp0tV1-11" target="vDJg07O1ZjI907rp0tV1-25">
          <mxGeometry relative="1" as="geometry" />
        </mxCell>
        <mxCell id="vDJg07O1ZjI907rp0tV1-11" value="科目一覧画面" style="rounded=0;whiteSpace=wrap;html=1;" vertex="1" parent="1">
          <mxGeometry x="570" y="440" width="100" height="50" as="geometry" />
        </mxCell>
        <mxCell id="vDJg07O1ZjI907rp0tV1-30" style="edgeStyle=orthogonalEdgeStyle;rounded=0;orthogonalLoop=1;jettySize=auto;html=1;entryX=0;entryY=0.5;entryDx=0;entryDy=0;" edge="1" parent="1" source="vDJg07O1ZjI907rp0tV1-12" target="vDJg07O1ZjI907rp0tV1-28">
          <mxGeometry relative="1" as="geometry" />
        </mxCell>
        <mxCell id="vDJg07O1ZjI907rp0tV1-31" style="edgeStyle=orthogonalEdgeStyle;rounded=0;orthogonalLoop=1;jettySize=auto;html=1;entryX=0;entryY=0.5;entryDx=0;entryDy=0;" edge="1" parent="1" source="vDJg07O1ZjI907rp0tV1-12" target="vDJg07O1ZjI907rp0tV1-29">
          <mxGeometry relative="1" as="geometry" />
        </mxCell>
        <mxCell id="vDJg07O1ZjI907rp0tV1-12" value="カレンダー一覧画面" style="rounded=0;whiteSpace=wrap;html=1;" vertex="1" parent="1">
          <mxGeometry x="570" y="610" width="110" height="50" as="geometry" />
        </mxCell>
        <mxCell id="vDJg07O1ZjI907rp0tV1-16" value="教員登録画面" style="rounded=0;whiteSpace=wrap;html=1;" vertex="1" parent="1">
          <mxGeometry x="780" y="100" width="90" height="50" as="geometry" />
        </mxCell>
        <mxCell id="vDJg07O1ZjI907rp0tV1-18" value="教員変更画面" style="rounded=0;whiteSpace=wrap;html=1;" vertex="1" parent="1">
          <mxGeometry x="780" y="190" width="90" height="50" as="geometry" />
        </mxCell>
        <mxCell id="vDJg07O1ZjI907rp0tV1-20" value="クラス登録画面" style="rounded=0;whiteSpace=wrap;html=1;" vertex="1" parent="1">
          <mxGeometry x="780" y="270" width="90" height="50" as="geometry" />
        </mxCell>
        <mxCell id="vDJg07O1ZjI907rp0tV1-22" value="クラス変更画面" style="rounded=0;whiteSpace=wrap;html=1;" vertex="1" parent="1">
          <mxGeometry x="780" y="360" width="90" height="50" as="geometry" />
        </mxCell>
        <mxCell id="vDJg07O1ZjI907rp0tV1-24" value="科目登録画面" style="rounded=0;whiteSpace=wrap;html=1;" vertex="1" parent="1">
          <mxGeometry x="780" y="440" width="90" height="50" as="geometry" />
        </mxCell>
        <mxCell id="vDJg07O1ZjI907rp0tV1-25" value="科目変更画面" style="rounded=0;whiteSpace=wrap;html=1;" vertex="1" parent="1">
          <mxGeometry x="780" y="530" width="90" height="50" as="geometry" />
        </mxCell>
        <mxCell id="vDJg07O1ZjI907rp0tV1-28" value="カレンダー登録画面" style="rounded=0;whiteSpace=wrap;html=1;" vertex="1" parent="1">
          <mxGeometry x="780" y="610" width="90" height="50" as="geometry" />
        </mxCell>
        <mxCell id="vDJg07O1ZjI907rp0tV1-29" value="カレンダー変更画面" style="rounded=0;whiteSpace=wrap;html=1;" vertex="1" parent="1">
          <mxGeometry x="780" y="700" width="90" height="50" as="geometry" />
        </mxCell>
      </root>
    </mxGraphModel>
  </diagram>
</mxfile>
